<?xml version="1.0" standalone="no"?><!DOCTYPE svg PUBLIC "-//W3C//DTD SVG 1.1//EN" "http://www.w3.org/Graphics/SVG/1.1/DTD/svg11.dtd"><svg t="1597814556347" class="icon" viewBox="0 0 1024 1024" version="1.1" xmlns="http://www.w3.org/2000/svg" p-id="2332" xmlns:xlink="http://www.w3.org/1999/xlink" width="200" height="200"><defs><style type="text/css"></style></defs><path d="M512 9.660377C660.576604 9.660377 781.408604 126.20317 781.408604 270.490566c0 105.066264-64.067623 195.410113-156.246944 236.775849C810.312453 556.032 946.716981 721.610868 946.716981 918.566642a420.226415 420.226415 0 0 1-5.660981 68.936452 28.981132 28.981132 0 0 1-57.189434-9.505811 362.264151 362.264151 0 0 0 4.888151-59.430641C888.754717 715.505509 720.219774 550.641509 512 550.641509S135.245283 715.52483 135.245283 918.566642c0 19.900377 1.622943 39.588226 4.810868 58.928301a28.981132 28.981132 0 0 1-57.189434 9.428529A420.265057 420.265057 0 0 1 77.283019 918.566642C77.283019 721.630189 213.687547 556.051321 398.83834 507.247094 306.659019 465.900679 242.591396 375.55683 242.591396 270.490566 242.591396 126.20317 363.423396 9.660377 512 9.660377z m0 57.962265c-117.006491 0-211.44634 91.058717-211.44634 202.867924S394.993509 473.358491 512 473.358491c117.006491 0 211.44634-91.058717 211.44634-202.867925S629.006491 67.622642 512 67.622642z" p-id="2333"></path></svg>