<?xml version="1.0" standalone="no"?><!DOCTYPE svg PUBLIC "-//W3C//DTD SVG 1.1//EN" "http://www.w3.org/Graphics/SVG/1.1/DTD/svg11.dtd"><svg t="1597814514664" class="icon" viewBox="0 0 1107 1024" version="1.1" xmlns="http://www.w3.org/2000/svg" p-id="2155" xmlns:xlink="http://www.w3.org/1999/xlink" width="216.2109375" height="200"><defs><style type="text/css"></style></defs><path d="M318.95082 889.704918a67.147541 67.147541 0 1 1 0 134.295082 67.147541 67.147541 0 0 1 0-134.295082z m688.262295 0a67.147541 67.147541 0 1 1 0 134.295082 67.147541 67.147541 0 0 1 0-134.295082zM184.823607 35.08459l1.913704 1.846558c22.04118 20.563934 39.700984 92.562885 61.070689 223.819541l5.136787 32.130098c19.858885 126.875279 39.600262 288.616918 52.845115 430.382164a75.540984 75.540984 0 0 0 71.747147 69.36341l3.55882 0.083934h552.842492a75.540984 75.540984 0 0 0 74.919869-65.905311l0.386098-3.525246 34.027016-419.672131a75.540984 75.540984 0 0 0-71.73036-81.567476l-3.575607-0.083934H393.921049a25.180328 25.180328 0 0 1-2.417311-50.259935l2.417311-0.100721h574.044328a125.901639 125.901639 0 0 1 125.901639 125.901639l-0.100721 5.086427-0.302164 5.086426-34.027016 419.672131a125.901639 125.901639 0 0 1-121.31882 115.661639l-4.179934 0.067148H381.095869c-64.193049 0-117.860721-48.245508-125.062295-111.297049l-3.978492-41.195017c-12.355148-124.827279-29.20918-261.371803-46.29823-373.306754l-2.568393-16.602229c-10.592525-67.701508-20.933246-123.668984-30.468197-164.125377l-2.920918-12.01941c-3.844197-15.309639-7.503738-27.748721-10.877901-37.015082a105.20341 105.20341 0 0 0-4.297443-10.374295l-0.923279-1.762623c-0.134295-0.235016-0.201443-0.386098-0.167869-0.402885l0.184656 0.05036-0.671475-0.419672-2.115148-2.232656c-13.698098-14.386361-54.389508-19.170623-120.966295-9.232787A25.180328 25.180328 0 0 1 22.528 13.328787C101.778885 1.51082 155.547279 7.184787 184.823607 35.08459z" p-id="2156"></path></svg>